<svg id="visual" viewBox="0 0 1920 1080" width="1920" height="1080" xmlns="http://www.w3.org/2000/svg" xmlns:xlink="http://www.w3.org/1999/xlink" version="1.1"><rect x="0" y="0" width="1920" height="1080" fill="#182848"></rect><path d="M0 604L40 608.3C80 612.7 160 621.3 240 640C320 658.7 400 687.3 480 688.2C560 689 640 662 720 647.2C800 632.3 880 629.7 960 640.2C1040 650.7 1120 674.3 1200 670C1280 665.7 1360 633.3 1440 642.2C1520 651 1600 701 1680 716.7C1760 732.3 1840 713.7 1880 704.3L1920 695L1920 1081L1880 1081C1840 1081 1760 1081 1680 1081C1600 1081 1520 1081 1440 1081C1360 1081 1280 1081 1200 1081C1120 1081 1040 1081 960 1081C880 1081 800 1081 720 1081C640 1081 560 1081 480 1081C400 1081 320 1081 240 1081C160 1081 80 1081 40 1081L0 1081Z" fill="#eac544"></path><path d="M0 698L40 708.2C80 718.3 160 738.7 240 751.7C320 764.7 400 770.3 480 768.8C560 767.3 640 758.7 720 753.2C800 747.7 880 745.3 960 736.3C1040 727.3 1120 711.7 1200 716.5C1280 721.3 1360 746.7 1440 740.8C1520 735 1600 698 1680 674.7C1760 651.3 1840 641.7 1880 636.8L1920 632L1920 1081L1880 1081C1840 1081 1760 1081 1680 1081C1600 1081 1520 1081 1440 1081C1360 1081 1280 1081 1200 1081C1120 1081 1040 1081 960 1081C880 1081 800 1081 720 1081C640 1081 560 1081 480 1081C400 1081 320 1081 240 1081C160 1081 80 1081 40 1081L0 1081Z" fill="#f9b248"></path><path d="M0 807L40 795.2C80 783.3 160 759.7 240 742.3C320 725 400 714 480 704.2C560 694.3 640 685.7 720 693.5C800 701.3 880 725.7 960 743.8C1040 762 1120 774 1200 774C1280 774 1360 762 1440 743.8C1520 725.7 1600 701.3 1680 692C1760 682.7 1840 688.3 1880 691.2L1920 694L1920 1081L1880 1081C1840 1081 1760 1081 1680 1081C1600 1081 1520 1081 1440 1081C1360 1081 1280 1081 1200 1081C1120 1081 1040 1081 960 1081C880 1081 800 1081 720 1081C640 1081 560 1081 480 1081C400 1081 320 1081 240 1081C160 1081 80 1081 40 1081L0 1081Z" fill="#ff9f53"></path><path d="M0 824L40 812C80 800 160 776 240 757.8C320 739.7 400 727.3 480 738.7C560 750 640 785 720 785.8C800 786.7 880 753.3 960 739.2C1040 725 1120 730 1200 733C1280 736 1360 737 1440 748.8C1520 760.7 1600 783.3 1680 787.5C1760 791.7 1840 777.3 1880 770.2L1920 763L1920 1081L1880 1081C1840 1081 1760 1081 1680 1081C1600 1081 1520 1081 1440 1081C1360 1081 1280 1081 1200 1081C1120 1081 1040 1081 960 1081C880 1081 800 1081 720 1081C640 1081 560 1081 480 1081C400 1081 320 1081 240 1081C160 1081 80 1081 40 1081L0 1081Z" fill="#ff8c63"></path><path d="M0 777L40 783.2C80 789.3 160 801.7 240 815.3C320 829 400 844 480 845.7C560 847.3 640 835.7 720 817.7C800 799.7 880 775.3 960 778.3C1040 781.3 1120 811.7 1200 812.8C1280 814 1360 786 1440 789.5C1520 793 1600 828 1680 836.5C1760 845 1840 827 1880 818L1920 809L1920 1081L1880 1081C1840 1081 1760 1081 1680 1081C1600 1081 1520 1081 1440 1081C1360 1081 1280 1081 1200 1081C1120 1081 1040 1081 960 1081C880 1081 800 1081 720 1081C640 1081 560 1081 480 1081C400 1081 320 1081 240 1081C160 1081 80 1081 40 1081L0 1081Z" fill="#ff7d75"></path><path d="M0 802L40 816.7C80 831.3 160 860.7 240 866.7C320 872.7 400 855.3 480 846.2C560 837 640 836 720 829.3C800 822.7 880 810.3 960 816C1040 821.7 1120 845.3 1200 846.7C1280 848 1360 827 1440 824.5C1520 822 1600 838 1680 836.8C1760 835.7 1840 817.3 1880 808.2L1920 799L1920 1081L1880 1081C1840 1081 1760 1081 1680 1081C1600 1081 1520 1081 1440 1081C1360 1081 1280 1081 1200 1081C1120 1081 1040 1081 960 1081C880 1081 800 1081 720 1081C640 1081 560 1081 480 1081C400 1081 320 1081 240 1081C160 1081 80 1081 40 1081L0 1081Z" fill="#fb7187"></path><path d="M0 867L40 859.8C80 852.7 160 838.3 240 836.5C320 834.7 400 845.3 480 847.8C560 850.3 640 844.7 720 844C800 843.3 880 847.7 960 846.7C1040 845.7 1120 839.3 1200 834.3C1280 829.3 1360 825.7 1440 834.8C1520 844 1600 866 1680 881.2C1760 896.3 1840 904.7 1880 908.8L1920 913L1920 1081L1880 1081C1840 1081 1760 1081 1680 1081C1600 1081 1520 1081 1440 1081C1360 1081 1280 1081 1200 1081C1120 1081 1040 1081 960 1081C880 1081 800 1081 720 1081C640 1081 560 1081 480 1081C400 1081 320 1081 240 1081C160 1081 80 1081 40 1081L0 1081Z" fill="#eb6a98"></path><path d="M0 861L40 865.2C80 869.3 160 877.7 240 886.3C320 895 400 904 480 904.7C560 905.3 640 897.7 720 902.2C800 906.7 880 923.3 960 921.8C1040 920.3 1120 900.7 1200 891.8C1280 883 1360 885 1440 892.5C1520 900 1600 913 1680 920.3C1760 927.7 1840 929.3 1880 930.2L1920 931L1920 1081L1880 1081C1840 1081 1760 1081 1680 1081C1600 1081 1520 1081 1440 1081C1360 1081 1280 1081 1200 1081C1120 1081 1040 1081 960 1081C880 1081 800 1081 720 1081C640 1081 560 1081 480 1081C400 1081 320 1081 240 1081C160 1081 80 1081 40 1081L0 1081Z" fill="#d668a7"></path><path d="M0 904L40 907.5C80 911 160 918 240 922.8C320 927.7 400 930.3 480 927.2C560 924 640 915 720 918C800 921 880 936 960 946C1040 956 1120 961 1200 954.2C1280 947.3 1360 928.7 1440 930.2C1520 931.7 1600 953.3 1680 963.2C1760 973 1840 971 1880 970L1920 969L1920 1081L1880 1081C1840 1081 1760 1081 1680 1081C1600 1081 1520 1081 1440 1081C1360 1081 1280 1081 1200 1081C1120 1081 1040 1081 960 1081C880 1081 800 1081 720 1081C640 1081 560 1081 480 1081C400 1081 320 1081 240 1081C160 1081 80 1081 40 1081L0 1081Z" fill="#ba68b3"></path><path d="M0 975L40 975.2C80 975.3 160 975.7 240 972.2C320 968.7 400 961.3 480 964.7C560 968 640 982 720 980.5C800 979 880 962 960 958.8C1040 955.7 1120 966.3 1200 973.5C1280 980.7 1360 984.3 1440 984.5C1520 984.7 1600 981.3 1680 976C1760 970.7 1840 963.3 1880 959.7L1920 956L1920 1081L1880 1081C1840 1081 1760 1081 1680 1081C1600 1081 1520 1081 1440 1081C1360 1081 1280 1081 1200 1081C1120 1081 1040 1081 960 1081C880 1081 800 1081 720 1081C640 1081 560 1081 480 1081C400 1081 320 1081 240 1081C160 1081 80 1081 40 1081L0 1081Z" fill="#9a6aba"></path><path d="M0 1031L40 1031.3C80 1031.7 160 1032.3 240 1029C320 1025.7 400 1018.3 480 1008.8C560 999.3 640 987.7 720 988.7C800 989.7 880 1003.3 960 1011.2C1040 1019 1120 1021 1200 1021.7C1280 1022.3 1360 1021.7 1440 1017C1520 1012.3 1600 1003.7 1680 1000.7C1760 997.7 1840 1000.3 1880 1001.7L1920 1003L1920 1081L1880 1081C1840 1081 1760 1081 1680 1081C1600 1081 1520 1081 1440 1081C1360 1081 1280 1081 1200 1081C1120 1081 1040 1081 960 1081C880 1081 800 1081 720 1081C640 1081 560 1081 480 1081C400 1081 320 1081 240 1081C160 1081 80 1081 40 1081L0 1081Z" fill="#766cbb"></path><path d="M0 1029L40 1028C80 1027 160 1025 240 1029.3C320 1033.7 400 1044.3 480 1050.7C560 1057 640 1059 720 1057.5C800 1056 880 1051 960 1047C1040 1043 1120 1040 1200 1036.5C1280 1033 1360 1029 1440 1027.5C1520 1026 1600 1027 1680 1028.2C1760 1029.3 1840 1030.7 1880 1031.3L1920 1032L1920 1081L1880 1081C1840 1081 1760 1081 1680 1081C1600 1081 1520 1081 1440 1081C1360 1081 1280 1081 1200 1081C1120 1081 1040 1081 960 1081C880 1081 800 1081 720 1081C640 1081 560 1081 480 1081C400 1081 320 1081 240 1081C160 1081 80 1081 40 1081L0 1081Z" fill="#4b6cb7"></path></svg>